# xmcd
#
# Track frame offsets: 
#        150
#        18185
#        32378
#        45523
#        56618
#        68440
#        85820
#        112223
#        125573
#        138335
#        151480
#        164508
#        175608
#        190168
#
# Disc length: 2712 seconds
#
# Revision: 0
# Processed by: cddbd v1.5.2PL0 Copyright (c) Steve Scherf et al.
# Submitted via: ExactAudioCopy v0.95b3
#
DISCID=af0a960e
DTITLE=Dave Clark Five  - Dave Clark and Friends  FLAC
DYEAR=1900
DGENRE=
TTITLE0=Southern Man
TTITLE1=Bring It On Home To Me
TTITLE2=Signs
TTITLE3=Won't You Be My Lady
TTITLE4=The Time Has Come
TTITLE5=If You've Got A Little Love To Give
TTITLE6=Officer McKirk
TTITLE7=Paradise Is Half As Nice
TTITLE8=Draggin' The Line
TTITLE9=Think Of Me
TTITLE10=One-Eyed, Blue-Suited, Gun-Totin' Man
TTITLE11=Right Or Wrong
TTITLE12=I Don't Know
TTITLE13=Put A Little Love In Your Heart
EXTD=
EXTT0=
EXTT1=
EXTT2=
EXTT3=
EXTT4=
EXTT5=
EXTT6=
EXTT7=
EXTT8=
EXTT9=
EXTT10=
EXTT11=
EXTT12=
EXTT13=
PLAYORDER=
